# xmcd
#
# Track frame offsets:
#	150
#	14528
#	27078
#	41953
#	54158
#	69745
#	83165
#	96953
#	113768
#	126688
#	140270
#	154895
#
# Disc length: 2276 seconds
#
# Revision: 0
# Processed by: cddbd v1.5.2PL0 Copyright (c) Steve Scherf et al.
# Submitted via: EasyCDDAExtractor 16.0.6.1
#
DISCID=a508e20c
DTITLE=Μπέλλου Σωτηρία - Τα ρεμπέτικα της Σ. Μπέλλου 03
DYEAR=1996
DGENRE=Ρεμπέτικη
TTITLE0=Δυό πόρτες έχει η ζωή [Σ. Καζαντζίδη]
TTITLE1=Είμαι ένα παλιόπαιδο [Μαρίνου Γαβριήλ-Σωτ. Μπέλλου]
TTITLE2=Χωρίσαμε ένα δειλινό [Βασ. Τσιτσάνη]
TTITLE3=Το καινούργιο Χόλλυγουντ [Λευτέρη Τσαγκάρη-Σωτ. Μπέλλου]
TTITLE4=Η χαρτορίχτρα [Πάνου Πετσά-Δημ. Γκούτη]
TTITLE5=Το γελεκάκι [Σπύρου Ολλανδέζου-Γιάννη Θεοδωρίδη]
TTITLE6=Δώδεκα η ώρα [Βασ. Τσιτσάνη]
TTITLE7=Σαν απόκληρος γυρίζω [Βασ. Τσιτσάνη]
TTITLE8=Προχτές, εχτές και σήμερα [Πάνου Πετσά-Κώστα Τσιτσιγώτη]
TTITLE9=Τα καλά παιδιά [Μαρίνου Γαβριήλ-Σωτ. Μπέλλου]
TTITLE10=Πάντα περιπλανώμενος [Μαρίνου Γαβριήλ-Σωτ. Μπέλλου]
TTITLE11=Κάτω απ' το σβηστό φανάρι [Γιώργου Μητσάκη]
EXTD=
EXTT0=
EXTT1=
EXTT2=
EXTT3=
EXTT4=
EXTT5=
EXTT6=
EXTT7=
EXTT8=
EXTT9=
EXTT10=
EXTT11=
PLAYORDER=
